<svg xmlns="http://www.w3.org/2000/svg" width="14.382" height="19.176" viewBox="0 0 14.382 19.176">
  <g id="fire" transform="translate(-64 0)">
    <g id="Group_114" data-name="Group 114" transform="translate(64 0)">
      <path id="Path_76" data-name="Path 76" d="M78.341,11.228a11.3,11.3,0,0,0-2.726-6.234C74.528,3.53,73.588,2.265,73.588.4a.4.4,0,0,0-.217-.355.4.4,0,0,0-.415.03,10.161,10.161,0,0,0-3.75,5.42,17.693,17.693,0,0,0-.411,4.052c-1.629-.348-2-2.785-2-2.812a.4.4,0,0,0-.57-.3c-.085.041-2.1,1.063-2.214,5.144-.008.136-.009.272-.009.408a7.2,7.2,0,0,0,7.191,7.191.056.056,0,0,0,.016,0h.005a7.2,7.2,0,0,0,7.17-7.191C78.382,11.786,78.341,11.228,78.341,11.228Zm-7.15,7.149a2.482,2.482,0,0,1-2.4-2.553c0-.048,0-.1,0-.156A3.239,3.239,0,0,1,69.05,14.4a1.459,1.459,0,0,0,1.319.955.4.4,0,0,0,.4-.4,7.991,7.991,0,0,1,.153-1.817,3.863,3.863,0,0,1,.809-1.532,5.148,5.148,0,0,0,.824,1.511,4.552,4.552,0,0,1,1.024,2.494c.005.069.01.138.01.212A2.482,2.482,0,0,1,71.191,18.377Z" transform="translate(-64 0)" fill="#f48554"/>
    </g>
  </g>
</svg>
