<svg xmlns="http://www.w3.org/2000/svg" width="67.427" height="52.014" viewBox="0 0 67.427 52.014">
  <g id="Group_133" data-name="Group 133" transform="translate(-171.594 -43.986)">
    <path id="Union_16" data-name="Union 16" d="M43.654,38.82c.938-2.584-.069-4.374-2.062-5.808a19.4,19.4,0,0,0-3.974-2.052,4.44,4.44,0,0,1-2.365-1.59C36.61,28,38.35,28,39.953,27.711c4.494-.8,9.069-.655,13.6-1.094.707-.068,1.416-.1,2.442-.177-1.814,4.205-3.563,8.264-5.338,12.379Zm-27.285-.149L0,.021H12.242c2.606,6.838,5.233,13.731,8.01,21.022,3.163-7.27,6.135-14.106,9.141-21.02h8.562c1.5,3.488,3.03,7.05,4.56,10.611q2.122,4.936,4.244,9.871c.078.183.136.447.437.365.081,1.081,1.518.654,1.807,1.7-.078.983-1.022,1.225-1.819,1.531a37.388,37.388,0,0,1-9.511,1.781c-4.346.472-8.738.534-13.038,1.423a3.655,3.655,0,0,0-2.62,1.42c-.015,1.141.875,1.648,1.624,2.2.866.637,1.843,1.126,2.708,1.762s1.93,1.284,1.722,2.53c-.188,1.116-1.276,1.482-2.23,1.868a22.828,22.828,0,0,1-6.112,1.374,20.556,20.556,0,0,1-2.413.313A4.287,4.287,0,0,1,16.368,38.671Zm30.87-17.847a26.405,26.405,0,0,1,1.869-5.159C51.129,10.44,53.233,5.244,55.317,0H67.427L57.675,22.589C54.131,21.968,50.757,20.955,47.238,20.823Z" transform="translate(171.594 43.986)" fill="#3b3939"/>
    <text id="wwalks" transform="translate(189 94)" fill="#242424" font-size="9" font-family="Gordita-Medium, Gordita" font-weight="500" letter-spacing="0.05em"><tspan x="0" y="0">wwalks</tspan></text>
  </g>
</svg>
