<svg id="activities" xmlns="http://www.w3.org/2000/svg" width="18.049" height="19.386" viewBox="0 0 18.049 19.386">
  <path id="Path_26" data-name="Path 26" d="M17.671,6.685A1.673,1.673,0,0,0,16,8.356V9.693a.334.334,0,0,0,.334.334h1.078a7.593,7.593,0,0,0,.675,2.29,1.653,1.653,0,0,0-.75,1.387v1.337a.334.334,0,0,0,.334.334h2.674a.331.331,0,0,0,.223-.089c.178.127.362.243.549.354l-1.641,3.077H18.34a.334.334,0,0,0,0,.668h1.337a.334.334,0,0,0,.295-.177l1.735-3.253a7.673,7.673,0,0,0,1.647.567v1.192a.334.334,0,0,0,.334.334h2.674a.334.334,0,0,0,.334-.334V16.523a7.67,7.67,0,0,0,1.647-.567l1.735,3.253a.335.335,0,0,0,.3.177h1.337a.334.334,0,1,0,0-.668H30.573L28.932,15.64c.188-.111.372-.228.549-.354a.33.33,0,0,0,.223.089h2.674a.334.334,0,0,0,.334-.334V13.7a1.653,1.653,0,0,0-.75-1.387,7.584,7.584,0,0,0,.675-2.29h1.078a.334.334,0,0,0,.334-.334V8.356a1.673,1.673,0,0,0-1.671-1.671c-.012,0-.024,0-.035,0a7.622,7.622,0,0,0-.574-1.353.329.329,0,0,0,.275-.322V3.677a1.673,1.673,0,0,0-1.671-1.671,1.647,1.647,0,0,0-1.219.538A7.585,7.585,0,0,0,26.68,1.52a1.662,1.662,0,0,0-3.312,0A7.578,7.578,0,0,0,20.9,2.543a1.647,1.647,0,0,0-1.219-.538,1.673,1.673,0,0,0-1.671,1.671V5.014a.329.329,0,0,0,.275.322,7.648,7.648,0,0,0-.574,1.353C17.695,6.688,17.683,6.685,17.671,6.685Zm-1,1.671a1.012,1.012,0,0,1,1.207-.982h0a.987.987,0,0,1,.136.041l.031.009c.015.006.028.015.043.021a1.006,1.006,0,0,1,.589.91v1H16.668Zm1.337,6.35v-1a1,1,0,0,1,2.005,0V14.7Zm6.016,2.674v-1a.293.293,0,0,1,0-.033l.007-.058a1,1,0,0,1,1.984,0l.011,1.094Zm2.587-1.519a1.694,1.694,0,0,0-.085-.207c-.005-.011-.009-.024-.014-.035a1.668,1.668,0,0,0-.149-.24c-.018-.024-.039-.046-.058-.069a1.669,1.669,0,0,0-.129-.142c-.026-.025-.054-.047-.081-.071a1.6,1.6,0,0,0-.14-.106c-.031-.021-.062-.04-.095-.059a1.59,1.59,0,0,0-.158-.08c-.033-.015-.066-.03-.1-.042a1.6,1.6,0,0,0-.187-.054c-.031-.007-.06-.017-.092-.023a1.73,1.73,0,0,0-.3-.027,1.694,1.694,0,0,0-.3.028c-.03.005-.059.015-.089.022a1.619,1.619,0,0,0-.193.056c-.031.011-.06.025-.09.038a1.626,1.626,0,0,0-.177.09l-.072.044a1.636,1.636,0,0,0-.181.14l-.037.032a1.658,1.658,0,0,0-.449.705,7.008,7.008,0,0,1-1.42-.495l2.532-4.747a1.5,1.5,0,0,0,.944,0l2.532,4.747A7.015,7.015,0,0,1,26.608,15.861ZM24.022,9.024a1,1,0,1,1,1.741.673l-.443-.831a.348.348,0,0,0-.59,0l-.443.831A1,1,0,0,1,24.022,9.024Zm1.151.988a.736.736,0,0,1-.3,0l.148-.277Zm6.871,4.694H30.038v-1a1,1,0,0,1,2.005,0Zm1.337-6.35v1H31.375v-1a1,1,0,0,1,.8-.982h0a1.024,1.024,0,0,1,.2-.021A1,1,0,0,1,33.38,8.356ZM30.372,2.674a1,1,0,0,1,1,1v1H29.369v-1a1.017,1.017,0,0,1,1-1Zm-6.35-1a1,1,0,1,1,2.005,0v1H24.022v-1Zm-.668.536v.8a.334.334,0,0,0,.334.334h2.674a.334.334,0,0,0,.334-.334v-.8a6.926,6.926,0,0,1,2.108.9c-.005.015-.007.03-.012.045a1.65,1.65,0,0,0-.051.185c-.005.025-.012.05-.016.076a1.621,1.621,0,0,0-.023.26V5.014a.334.334,0,0,0,.334.334H31a6.955,6.955,0,0,1,.69,1.484c-.045.02-.086.046-.129.07-.023.013-.047.024-.07.038a1.688,1.688,0,0,0-.209.154c-.016.014-.029.03-.044.044a1.694,1.694,0,0,0-.138.143c-.02.024-.038.05-.057.075a1.64,1.64,0,0,0-.095.139c-.017.029-.033.058-.049.088q-.039.074-.07.151c-.012.031-.025.061-.036.093A1.69,1.69,0,0,0,30.749,8c-.006.028-.014.056-.019.085a1.646,1.646,0,0,0-.024.27V9.693a.334.334,0,0,0,.334.334h.93a6.961,6.961,0,0,1-.619,2.005h0c-.1,0-.206-.015-.309-.015A1.686,1.686,0,0,0,29.369,13.7v.833a6.948,6.948,0,0,1-.752.514L26.086,10.3a1.671,1.671,0,1,0-2.123,0l-2.532,4.747a7,7,0,0,1-.752-.514V13.7a1.686,1.686,0,0,0-1.671-1.687c-.1,0-.206.015-.309.015h0a6.96,6.96,0,0,1-.619-2.005h.931a.334.334,0,0,0,.334-.334V8.356a1.639,1.639,0,0,0-.024-.27c0-.029-.013-.056-.019-.084a1.7,1.7,0,0,0-.047-.174c-.01-.031-.023-.061-.035-.092a1.665,1.665,0,0,0-.071-.153c-.015-.029-.031-.058-.048-.086a1.65,1.65,0,0,0-.1-.142c-.018-.024-.035-.048-.054-.072a1.681,1.681,0,0,0-.146-.151c-.013-.012-.023-.025-.036-.036a1.673,1.673,0,0,0-.211-.156c-.02-.012-.042-.022-.062-.034-.044-.025-.088-.052-.135-.073a6.979,6.979,0,0,1,.69-1.484h1.967a.334.334,0,0,0,.334-.334V3.678a1.617,1.617,0,0,0-.023-.26c0-.026-.011-.052-.016-.078a1.657,1.657,0,0,0-.049-.181c-.005-.015-.007-.032-.013-.047A6.908,6.908,0,0,1,23.353,2.207ZM18.674,3.677a1,1,0,0,1,1-1,1.016,1.016,0,0,1,1,1v1H18.674Z" transform="translate(-16)" fill="#cacaca"/>
</svg>
