<svg id="hotel" xmlns="http://www.w3.org/2000/svg" width="19.783" height="19.783" viewBox="0 0 19.783 19.783">
  <g id="Group_87" data-name="Group 87" transform="translate(0)">
    <path id="Path_30" data-name="Path 30" d="M228.434,129.364h-1.023v-1.023a.341.341,0,0,0-.341-.341h-1.364a.341.341,0,0,0-.341.341v1.023h-1.023a.341.341,0,0,0-.341.341v1.023a.683.683,0,0,0,.682.682h3.411a.683.683,0,0,0,.682-.682v-1.023A.341.341,0,0,0,228.434,129.364Zm-2.388-.682h.682v.682h-.682Zm2.047,2.046h-3.411v-.682h3.411Z" transform="translate(-214.45 -122.543)" fill="#ffae00"/>
    <path id="Path_31" data-name="Path 31" d="M228.434,225.364h-1.023v-1.023a.341.341,0,0,0-.341-.341h-1.364a.341.341,0,0,0-.341.341v1.023h-1.023a.341.341,0,0,0-.341.341v1.023a.683.683,0,0,0,.682.682h3.411a.683.683,0,0,0,.682-.682v-1.023A.341.341,0,0,0,228.434,225.364Zm-2.388-.682h.682v.682h-.682Zm2.047,2.046h-3.411v-.682h3.411Z" transform="translate(-214.45 -214.45)" fill="#ffae00"/>
    <path id="Path_32" data-name="Path 32" d="M19.783,13.984c0-.3-.475-4.434-1.705-4.434s-1.705,4.131-1.705,4.434a1.709,1.709,0,0,0,1.364,1.671V19.1H15.69V5.116a1.024,1.024,0,0,0-1.023-1.023H12.961V3.411H13.3a1.024,1.024,0,0,0,1.023-1.023V1.023A1.024,1.024,0,0,0,13.3,0H6.481A1.024,1.024,0,0,0,5.457,1.023V2.388A1.024,1.024,0,0,0,6.481,3.411h.341v.682H5.116A1.024,1.024,0,0,0,4.093,5.116V19.1H2.046V15.655a1.708,1.708,0,0,0,1.364-1.671c0-.3-.475-4.434-1.705-4.434S0,13.681,0,13.984a1.709,1.709,0,0,0,1.364,1.671V19.1H.341a.341.341,0,0,0,0,.682h19.1a.341.341,0,1,0,0-.682H18.418V15.655A1.709,1.709,0,0,0,19.783,13.984Zm-19.1,0c0-.939.607-3.477,1.023-3.743.416.266,1.023,2.8,1.023,3.743a1.023,1.023,0,0,1-2.046,0Zm5.457-11.6V1.023A.341.341,0,0,1,6.481.682H13.3a.341.341,0,0,1,.341.341V2.388a.341.341,0,0,1-.341.341H6.481A.341.341,0,0,1,6.139,2.388ZM7.5,3.411h4.775v.682H7.5ZM9.55,19.1H8.868V17.054H9.55Zm.682,0V17.054h.682V19.1Zm4.093,0V15.349a.341.341,0,1,0-.682,0V19.1H11.6V16.713a.341.341,0,0,0-.341-.341H8.527a.341.341,0,0,0-.341.341V19.1H6.139V15.349a.341.341,0,0,0-.682,0V19.1H4.775V5.116a.341.341,0,0,1,.341-.341h9.55a.341.341,0,0,1,.341.341V19.1Zm2.729-5.116c0-.939.607-3.477,1.023-3.743.416.266,1.023,2.8,1.023,3.743a1.023,1.023,0,0,1-2.046,0Z" transform="translate(0)" fill="#ffae00"/>
    <path id="Path_33" data-name="Path 33" d="M131.07,128h-1.364a.341.341,0,0,0-.341.341v1.023h-1.023a.341.341,0,0,0-.341.341v1.023a.683.683,0,0,0,.682.682h2.046a.683.683,0,0,0,.682-.682v-2.388A.341.341,0,0,0,131.07,128Zm-1.023.682h.682v.682h-.682Zm.682,2.046h-2.046v-.682h2.046Z" transform="translate(-122.543 -122.543)" fill="#ffae00"/>
    <path id="Path_34" data-name="Path 34" d="M131.07,224h-1.364a.341.341,0,0,0-.341.341v1.023h-1.023a.341.341,0,0,0-.341.341v1.023a.683.683,0,0,0,.682.682h2.046a.683.683,0,0,0,.682-.682v-2.388A.341.341,0,0,0,131.07,224Zm-1.023.682h.682v.682h-.682Zm.682,2.046h-2.046v-.682h2.046Z" transform="translate(-122.543 -214.45)" fill="#ffae00"/>
  </g>
</svg>
