<svg xmlns="http://www.w3.org/2000/svg" width="43.406" height="33.014" viewBox="0 0 43.406 33.014">
  <g id="logo" transform="translate(-31.594 -24.986)">
    <path id="Union_21" data-name="Union 21" d="M28.1,24.99a2.97,2.97,0,0,0-1.328-3.739,12.487,12.487,0,0,0-2.558-1.321,2.858,2.858,0,0,1-1.522-1.024c.874-.882,1.994-.885,3.026-1.068,2.893-.513,5.838-.422,8.753-.7.455-.044.912-.067,1.572-.114-1.168,2.707-2.294,5.32-3.437,7.969Zm-17.565-.1L0,.014H7.881l5.157,13.533c2.036-4.68,3.949-9.081,5.885-13.532h5.512c.965,2.246,1.951,4.538,2.935,6.831Q28.735,10.023,30.1,13.2c.05.118.088.287.281.235.052.7.977.421,1.163,1.1-.05.633-.658.789-1.171.985a24.069,24.069,0,0,1-6.123,1.146c-2.8.3-5.625.344-8.393.916a2.353,2.353,0,0,0-1.687.914c-.01.734.563,1.061,1.046,1.415.557.41,1.186.725,1.743,1.134s1.242.826,1.108,1.629c-.121.718-.821.954-1.436,1.2a14.7,14.7,0,0,1-3.934.885,13.233,13.233,0,0,1-1.554.2A2.76,2.76,0,0,1,10.537,24.895ZM30.41,13.405a17,17,0,0,1,1.2-3.321c1.3-3.363,2.656-6.708,4-10.084h7.8L37.129,14.542A50.3,50.3,0,0,0,30.41,13.405Z" transform="translate(31.594 24.986)" fill="#3b3939"/>
    <text id="wwalks" transform="translate(44 57)" fill="#242424" font-size="5" font-family="Gordita-Medium, Gordita" font-weight="500" letter-spacing="0.05em"><tspan x="0" y="0">wwalks</tspan></text>
  </g>
</svg>
