<svg id="pickupdrop" xmlns="http://www.w3.org/2000/svg" width="24.788" height="9.402" viewBox="0 0 24.788 9.402">
  <g id="Group_84" data-name="Group 84" transform="translate(0 0)">
    <path id="Path_21" data-name="Path 21" d="M24.5,137.151l-5.074-1.691-4.65-3.1A2.128,2.128,0,0,0,13.586,132H6.612A2.125,2.125,0,0,0,4.7,133.181l-1.119,2.238h-2.3A1.284,1.284,0,0,0,0,136.7v1.71a1.284,1.284,0,0,0,1.282,1.282h2.18a2.137,2.137,0,0,0,4.187,0h9.489a2.137,2.137,0,0,0,4.188,0h3.035a.427.427,0,0,0,.427-.427v-1.71A.426.426,0,0,0,24.5,137.151ZM14.3,133.07l3.523,2.349H11.112v-2.564h2.474A1.276,1.276,0,0,1,14.3,133.07Zm-8.831.493a1.276,1.276,0,0,1,1.147-.709h3.645v2.564H4.538Zm.09,6.984a1.282,1.282,0,1,1,1.282-1.282A1.284,1.284,0,0,1,5.556,140.548Zm13.676,0a1.282,1.282,0,1,1,1.282-1.282A1.284,1.284,0,0,1,19.232,140.548Zm4.7-1.71H21.369c0-.008-.026-.015-.028-.023a2.151,2.151,0,0,0-.121-.356c-.017-.041-.045-.079-.064-.118a2.18,2.18,0,0,0-.126-.227c-.027-.042-.06-.082-.09-.122a2.23,2.23,0,0,0-.152-.183c-.036-.038-.074-.074-.112-.109a2.153,2.153,0,0,0-.18-.149c-.042-.031-.084-.061-.128-.089a2.149,2.149,0,0,0-.212-.115c-.045-.022-.089-.045-.136-.064a2.047,2.047,0,0,0-.255-.079c-.042-.011-.082-.026-.126-.034a2.029,2.029,0,0,0-.812,0c-.043.009-.084.023-.126.034a2.208,2.208,0,0,0-.255.079c-.047.019-.091.042-.136.064a2.148,2.148,0,0,0-.212.115c-.044.028-.086.058-.128.089a2.225,2.225,0,0,0-.18.149c-.038.035-.076.071-.112.109a2.153,2.153,0,0,0-.151.183c-.03.04-.062.08-.089.122a2.071,2.071,0,0,0-.123.227c-.019.04-.042.077-.059.118a2.246,2.246,0,0,0-.132.356c0,.008-.028.015-.028.023h-9.4c0-.008-.026-.015-.028-.022a2.118,2.118,0,0,0-.122-.356c-.017-.041-.044-.078-.064-.117a2.232,2.232,0,0,0-.127-.228c-.027-.042-.059-.081-.09-.121a2.239,2.239,0,0,0-.152-.184c-.036-.038-.074-.074-.112-.109a2.153,2.153,0,0,0-.18-.149c-.042-.031-.084-.061-.129-.089a2.141,2.141,0,0,0-.211-.115c-.045-.022-.09-.045-.137-.064a2.112,2.112,0,0,0-.254-.079c-.042-.011-.083-.026-.127-.034a2.035,2.035,0,0,0-.811,0c-.044.009-.084.023-.127.034a2.118,2.118,0,0,0-.254.079c-.047.019-.091.042-.137.064a2.135,2.135,0,0,0-.211.115c-.044.028-.086.058-.129.089a2.218,2.218,0,0,0-.18.149c-.038.035-.076.071-.112.109a2.162,2.162,0,0,0-.152.184c-.03.04-.061.079-.088.121a2.1,2.1,0,0,0-.124.228c-.019.039-.041.076-.058.117a2.155,2.155,0,0,0-.132.356c0,.007-.027.014-.027.022H1.282a.428.428,0,0,1-.427-.427V136.7a.428.428,0,0,1,.427-.427H19.163l4.77,1.59Z" transform="translate(0 -132)" fill="#cacaca"/>
    <path id="Path_22" data-name="Path 22" d="M194.137,228h-1.71a.427.427,0,1,0,0,.855h1.71a.427.427,0,1,0,0-.855Z" transform="translate(-181.743 -222.871)" fill="#cacaca"/>
  </g>
</svg>
