<svg id="tours" xmlns="http://www.w3.org/2000/svg" width="16.712" height="19.409" viewBox="0 0 16.712 19.409">
  <g id="Group_89" data-name="Group 89" transform="translate(0 0)">
    <path id="Path_37" data-name="Path 37" d="M60.347,19.383a.33.33,0,0,0,.128-.025.334.334,0,0,0,.206-.309V4.343a.333.333,0,0,0-.1-.236L56.572.1,56.56.087a.319.319,0,0,0-.04-.03.319.319,0,0,0-.043-.026L56.463.023a.3.3,0,0,0-.03-.007A.334.334,0,0,0,56.384,0a.3.3,0,0,0-.049,0,.309.309,0,0,0-.046,0,.341.341,0,0,0-.051.013.285.285,0,0,0-.029.007L56.2.031a.329.329,0,0,0-.043.026.325.325,0,0,0-.04.03L56.1.1,52.325,3.87,48.55.1,48.538.087a.326.326,0,0,0-.04-.03.372.372,0,0,0-.043-.026.134.134,0,0,0-.013-.008c-.01,0-.02,0-.03-.008A.362.362,0,0,0,48.362,0a.3.3,0,0,0-.049,0,.309.309,0,0,0-.046,0,.346.346,0,0,0-.052.013.279.279,0,0,0-.029.007l-.013.008a.387.387,0,0,0-.044.026.319.319,0,0,0-.04.03s-.009.005-.012.009L44.067,4.107a.333.333,0,0,0-.1.236V19.049a.334.334,0,0,0,.206.309.33.33,0,0,0,.128.025.334.334,0,0,0,.236-.1l3.775-3.775,3.775,3.775s.007.017.01.019c.029.027.061.079.1.079h0c.041,0,.084.025.127.025s.087-.025.128-.025h0c.038,0,.07-.052.1-.079,0,0,.007-.01.01-.013l2.41-2.413c.514.852.977,1.53,1.09,1.693a.335.335,0,0,0,.55,0c.112-.163.576-.843,1.09-1.695l2.41,2.41A.336.336,0,0,0,60.347,19.383ZM44.637,4.481,47.98,1.139V14.9l-3.342,3.342Zm4.011-3.342,3.342,3.342V18.242L48.648,14.9Zm4.011,17.1V4.481L56,1.139v8.9c-.065.007-.127.019-.191.03-.028.005-.057.008-.085.014-.094.019-.185.043-.275.071-.033.01-.064.023-.1.034-.057.02-.115.039-.171.063-.037.015-.072.034-.109.05s-.1.045-.146.071-.072.042-.108.063-.09.052-.133.081-.069.048-.1.073-.083.06-.123.092-.065.054-.1.082-.077.068-.113.1-.06.06-.089.091-.07.075-.1.113-.054.065-.081.1-.062.081-.092.123-.048.069-.072.1-.055.088-.081.133-.042.073-.061.11-.047.095-.069.143-.035.075-.05.113-.038.1-.056.154-.027.076-.039.115c-.017.055-.03.112-.043.168-.009.037-.019.074-.027.111-.013.064-.021.128-.029.193,0,.032-.01.064-.014.1a2.909,2.909,0,0,0-.015.3,1.991,1.991,0,0,0,.026.3c0,.023.01.047.014.07.016.087.035.177.061.274.006.024.014.049.021.073.027.1.059.2.1.3l.033.091c.035.1.073.194.115.3.022.054.046.108.07.163.033.076.066.151.1.231.049.107.1.215.155.324l.042.086c.173.348.363.7.556,1.038Zm3.677-.459a28.455,28.455,0,0,1-1.813-3.124l-.037-.081c-.029-.063-.057-.125-.085-.186l-.057-.13c-.019-.045-.037-.089-.055-.133q-.044-.108-.08-.205c-.013-.036-.027-.072-.039-.107s-.029-.083-.041-.122c-.019-.059-.036-.116-.051-.172-.008-.029-.015-.057-.022-.084-.015-.061-.027-.12-.036-.175,0-.014,0-.028-.007-.041a1.356,1.356,0,0,1-.016-.19,2.34,2.34,0,0,1,4.679,0,1.356,1.356,0,0,1-.016.19l-.007.04c-.009.056-.022.115-.037.176-.006.026-.013.053-.021.081-.015.056-.032.115-.052.175-.012.037-.026.076-.039.116s-.028.08-.044.12c-.021.057-.044.116-.07.178s-.043.1-.066.158l-.05.115c-.032.072-.065.144-.1.218l-.024.051A28.377,28.377,0,0,1,56.336,17.783Zm3.677.459L58.051,16.28c.193-.339.382-.689.556-1.037l.043-.088c.053-.108.1-.216.154-.323.037-.08.07-.155.1-.231.024-.054.047-.109.07-.163.043-.1.08-.2.115-.3.011-.03.023-.061.033-.091.037-.106.069-.207.1-.3.007-.024.015-.049.021-.072.026-.1.046-.188.061-.275,0-.023.01-.047.014-.07a1.874,1.874,0,0,0,.027-.3c0-.1-.005-.2-.015-.3,0-.032-.009-.064-.014-.1-.009-.065-.017-.129-.029-.193-.007-.038-.018-.074-.027-.111-.013-.056-.027-.113-.043-.168-.012-.039-.026-.076-.039-.114s-.036-.1-.056-.154-.033-.076-.05-.113-.044-.1-.069-.143-.04-.074-.062-.11-.052-.09-.081-.133-.047-.07-.072-.1-.06-.083-.092-.123-.053-.066-.081-.1-.068-.076-.1-.113-.059-.061-.089-.091-.075-.069-.113-.1-.064-.056-.1-.082-.082-.062-.123-.092-.068-.05-.1-.073-.089-.055-.133-.081-.071-.043-.108-.063-.1-.048-.146-.071-.072-.035-.109-.05c-.056-.023-.114-.043-.171-.063-.032-.011-.064-.024-.1-.034-.09-.028-.182-.051-.275-.071-.028-.006-.057-.009-.085-.014-.063-.011-.126-.023-.191-.03V1.139l3.342,3.342V18.242Z" transform="translate(-43.969 0)" fill="#cacaca"/>
    <path id="Path_38" data-name="Path 38" d="M301.64,271.939a1.671,1.671,0,1,0,1.671,1.671A1.673,1.673,0,0,0,301.64,271.939Zm0,2.674a1,1,0,1,1,1-1A1,1,0,0,1,301.64,274.613Z" transform="translate(-289.273 -260.578)" fill="#cacaca"/>
  </g>
</svg>
